<svg width="512" height="512" viewBox="0 0 512 512" fill="none" xmlns="http://www.w3.org/2000/svg">
<rect width="512" height="512" fill="#020202"/>
<path d="M206.25 285.375V300H160.438V285.375H206.25ZM166.5 209V300H147.75V209H166.5ZM265.125 209H283.812V269.125C283.812 276.125 282.312 282.021 279.312 286.812C276.354 291.604 272.25 295.208 267 297.625C261.792 300.042 255.792 301.25 249 301.25C242.208 301.25 236.167 300.042 230.875 297.625C225.625 295.208 221.5 291.604 218.5 286.812C215.542 282.021 214.062 276.125 214.062 269.125V209H232.812V269.125C232.812 273.208 233.458 276.542 234.75 279.125C236.042 281.708 237.896 283.604 240.312 284.812C242.771 286.021 245.667 286.625 249 286.625C252.417 286.625 255.312 286.021 257.688 284.812C260.104 283.604 261.938 281.708 263.188 279.125C264.479 276.542 265.125 273.208 265.125 269.125V209ZM314.688 209L331.812 240.75L348.938 209H370.375L343.938 254.125L371.062 300H349.438L331.812 267.625L314.188 300H292.438L319.625 254.125L293.125 209H314.688Z" fill="white"/>
</svg>
